solid OpenSCAD_Model
  facet normal 1 -0 0
    outer loop
      vertex 6.8 6.8 1.5
      vertex 6.8 20.8 0
      vertex 6.8 20.8 1.5
    endloop
  endfacet
  facet normal 1 0 0
    outer loop
      vertex 6.8 20.8 0
      vertex 6.8 6.8 1.5
      vertex 6.8 6.8 0
    endloop
  endfacet
  facet normal -1 0 0
    outer loop
      vertex 20.8 6.8 0
      vertex 20.8 20.8 1.5
      vertex 20.8 20.8 0
    endloop
  endfacet
  facet normal -1 -0 0
    outer loop
      vertex 20.8 20.8 1.5
      vertex 20.8 6.8 0
      vertex 20.8 6.8 1.5
    endloop
  endfacet
  facet normal 0 -1 0
    outer loop
      vertex 6.8 20.8 0
      vertex 20.8 20.8 1.5
      vertex 6.8 20.8 1.5
    endloop
  endfacet
  facet normal 0 -1 -0
    outer loop
      vertex 20.8 20.8 1.5
      vertex 6.8 20.8 0
      vertex 20.8 20.8 0
    endloop
  endfacet
  facet normal 0 0 -1
    outer loop
      vertex 6.8 20.8 0
      vertex 20.8 28.4 0
      vertex 20.8 20.8 0
    endloop
  endfacet
  facet normal -0 0 -1
    outer loop
      vertex 20.8 28.4 0
      vertex 6.8 20.8 0
      vertex 6.8 28.4 0
    endloop
  endfacet
  facet normal 0 0 -1
    outer loop
      vertex 28.4 20.8 0
      vertex 42.4 28.4 0
      vertex 42.4 20.8 0
    endloop
  endfacet
  facet normal -0 0 -1
    outer loop
      vertex 42.4 28.4 0
      vertex 28.4 20.8 0
      vertex 28.4 28.4 0
    endloop
  endfacet
  facet normal 0 0 -1
    outer loop
      vertex 42.4 20.8 0
      vertex 49.2 0 0
      vertex 42.4 6.8 0
    endloop
  endfacet
  facet normal 0 0 -1
    outer loop
      vertex 49.2 0 0
      vertex 28.4 6.8 0
      vertex 42.4 6.8 0
    endloop
  endfacet
  facet normal 0 0 -1
    outer loop
      vertex 20.8 20.8 0
      vertex 28.4 20.8 0
      vertex 28.4 6.8 0
    endloop
  endfacet
  facet normal 0 0 -1
    outer loop
      vertex 28.4 20.8 0
      vertex 20.8 20.8 0
      vertex 28.4 28.4 0
    endloop
  endfacet
  facet normal 0 0 -1
    outer loop
      vertex 20.8 20.8 0
      vertex 28.4 6.8 0
      vertex 20.8 6.8 0
    endloop
  endfacet
  facet normal 0 0 -1
    outer loop
      vertex 49.2 0 0
      vertex 20.8 6.8 0
      vertex 28.4 6.8 0
    endloop
  endfacet
  facet normal 0 0 -1
    outer loop
      vertex 0 0 0
      vertex 20.8 6.8 0
      vertex 49.2 0 0
    endloop
  endfacet
  facet normal 0 0 -1
    outer loop
      vertex 0 0 0
      vertex 6.8 20.8 0
      vertex 6.8 6.8 0
    endloop
  endfacet
  facet normal -0 0 -1
    outer loop
      vertex 6.8 20.8 0
      vertex 0 0 0
      vertex 6.8 28.4 0
    endloop
  endfacet
  facet normal 0 0 -1
    outer loop
      vertex 0 49.2 0
      vertex 6.8 28.4 0
      vertex 0 0 0
    endloop
  endfacet
  facet normal -0 0 -1
    outer loop
      vertex 20.8 6.8 0
      vertex 0 0 0
      vertex 6.8 6.8 0
    endloop
  endfacet
  facet normal 0 0 -1
    outer loop
      vertex 49.2 0 0
      vertex 42.4 20.8 0
      vertex 49.2 49.2 0
    endloop
  endfacet
  facet normal 0 0 -1
    outer loop
      vertex 42.4 28.4 0
      vertex 49.2 49.2 0
      vertex 42.4 20.8 0
    endloop
  endfacet
  facet normal 0 0 -1
    outer loop
      vertex 42.4 42.4 0
      vertex 49.2 49.2 0
      vertex 42.4 28.4 0
    endloop
  endfacet
  facet normal 0 0 -1
    outer loop
      vertex 28.4 42.4 0
      vertex 49.2 49.2 0
      vertex 42.4 42.4 0
    endloop
  endfacet
  facet normal 0 0 -1
    outer loop
      vertex 20.8 28.4 0
      vertex 28.4 28.4 0
      vertex 20.8 20.8 0
    endloop
  endfacet
  facet normal 0 0 -1
    outer loop
      vertex 28.4 28.4 0
      vertex 20.8 28.4 0
      vertex 28.4 42.4 0
    endloop
  endfacet
  facet normal 0 0 -1
    outer loop
      vertex 20.8 42.4 0
      vertex 28.4 42.4 0
      vertex 20.8 28.4 0
    endloop
  endfacet
  facet normal 0 0 -1
    outer loop
      vertex 20.8 42.4 0
      vertex 49.2 49.2 0
      vertex 28.4 42.4 0
    endloop
  endfacet
  facet normal 0 0 -1
    outer loop
      vertex 0 49.2 0
      vertex 20.8 42.4 0
      vertex 6.8 42.4 0
    endloop
  endfacet
  facet normal 0 0 -1
    outer loop
      vertex 20.8 42.4 0
      vertex 0 49.2 0
      vertex 49.2 49.2 0
    endloop
  endfacet
  facet normal 0 0 -1
    outer loop
      vertex 6.8 28.4 0
      vertex 0 49.2 0
      vertex 6.8 42.4 0
    endloop
  endfacet
  facet normal 0 1 -0
    outer loop
      vertex 20.8 6.8 0
      vertex 6.8 6.8 1.5
      vertex 20.8 6.8 1.5
    endloop
  endfacet
  facet normal 0 1 0
    outer loop
      vertex 6.8 6.8 1.5
      vertex 20.8 6.8 0
      vertex 6.8 6.8 0
    endloop
  endfacet
  facet normal 1 -0 0
    outer loop
      vertex 6.8 28.4 1.5
      vertex 6.8 42.4 0
      vertex 6.8 42.4 1.5
    endloop
  endfacet
  facet normal 1 0 0
    outer loop
      vertex 6.8 42.4 0
      vertex 6.8 28.4 1.5
      vertex 6.8 28.4 0
    endloop
  endfacet
  facet normal -1 0 0
    outer loop
      vertex 20.8 28.4 0
      vertex 20.8 42.4 1.5
      vertex 20.8 42.4 0
    endloop
  endfacet
  facet normal -1 -0 0
    outer loop
      vertex 20.8 42.4 1.5
      vertex 20.8 28.4 0
      vertex 20.8 28.4 1.5
    endloop
  endfacet
  facet normal 0 -1 0
    outer loop
      vertex 6.8 42.4 0
      vertex 20.8 42.4 1.5
      vertex 6.8 42.4 1.5
    endloop
  endfacet
  facet normal 0 -1 -0
    outer loop
      vertex 20.8 42.4 1.5
      vertex 6.8 42.4 0
      vertex 20.8 42.4 0
    endloop
  endfacet
  facet normal 0 1 -0
    outer loop
      vertex 20.8 28.4 0
      vertex 6.8 28.4 1.5
      vertex 20.8 28.4 1.5
    endloop
  endfacet
  facet normal 0 1 0
    outer loop
      vertex 6.8 28.4 1.5
      vertex 20.8 28.4 0
      vertex 6.8 28.4 0
    endloop
  endfacet
  facet normal 1 -0 0
    outer loop
      vertex 28.4 6.8 1.5
      vertex 28.4 20.8 0
      vertex 28.4 20.8 1.5
    endloop
  endfacet
  facet normal 1 0 0
    outer loop
      vertex 28.4 20.8 0
      vertex 28.4 6.8 1.5
      vertex 28.4 6.8 0
    endloop
  endfacet
  facet normal -1 0 0
    outer loop
      vertex 42.4 6.8 0
      vertex 42.4 20.8 1.5
      vertex 42.4 20.8 0
    endloop
  endfacet
  facet normal -1 -0 0
    outer loop
      vertex 42.4 20.8 1.5
      vertex 42.4 6.8 0
      vertex 42.4 6.8 1.5
    endloop
  endfacet
  facet normal 0 -1 0
    outer loop
      vertex 28.4 20.8 0
      vertex 42.4 20.8 1.5
      vertex 28.4 20.8 1.5
    endloop
  endfacet
  facet normal 0 -1 -0
    outer loop
      vertex 42.4 20.8 1.5
      vertex 28.4 20.8 0
      vertex 42.4 20.8 0
    endloop
  endfacet
  facet normal 0 1 -0
    outer loop
      vertex 42.4 6.8 0
      vertex 28.4 6.8 1.5
      vertex 42.4 6.8 1.5
    endloop
  endfacet
  facet normal 0 1 0
    outer loop
      vertex 28.4 6.8 1.5
      vertex 42.4 6.8 0
      vertex 28.4 6.8 0
    endloop
  endfacet
  facet normal 1 -0 0
    outer loop
      vertex 28.4 28.4 1.5
      vertex 28.4 42.4 0
      vertex 28.4 42.4 1.5
    endloop
  endfacet
  facet normal 1 0 0
    outer loop
      vertex 28.4 42.4 0
      vertex 28.4 28.4 1.5
      vertex 28.4 28.4 0
    endloop
  endfacet
  facet normal -1 0 0
    outer loop
      vertex 42.4 28.4 0
      vertex 42.4 42.4 1.5
      vertex 42.4 42.4 0
    endloop
  endfacet
  facet normal -1 -0 0
    outer loop
      vertex 42.4 42.4 1.5
      vertex 42.4 28.4 0
      vertex 42.4 28.4 1.5
    endloop
  endfacet
  facet normal 0 -1 0
    outer loop
      vertex 28.4 42.4 0
      vertex 42.4 42.4 1.5
      vertex 28.4 42.4 1.5
    endloop
  endfacet
  facet normal 0 -1 -0
    outer loop
      vertex 42.4 42.4 1.5
      vertex 28.4 42.4 0
      vertex 42.4 42.4 0
    endloop
  endfacet
  facet normal 0 1 -0
    outer loop
      vertex 42.4 28.4 0
      vertex 28.4 28.4 1.5
      vertex 42.4 28.4 1.5
    endloop
  endfacet
  facet normal 0 1 0
    outer loop
      vertex 28.4 28.4 1.5
      vertex 42.4 28.4 0
      vertex 28.4 28.4 0
    endloop
  endfacet
  facet normal -1 0 0
    outer loop
      vertex 0 0 0
      vertex 0 49.2 1.5
      vertex 0 49.2 0
    endloop
  endfacet
  facet normal -1 -0 0
    outer loop
      vertex 0 49.2 1.5
      vertex 0 0 0
      vertex 0 0 1.5
    endloop
  endfacet
  facet normal -0 0 1
    outer loop
      vertex 6.8 28.4 1.5
      vertex 20.8 20.8 1.5
      vertex 20.8 28.4 1.5
    endloop
  endfacet
  facet normal 0 0 1
    outer loop
      vertex 20.8 20.8 1.5
      vertex 6.8 28.4 1.5
      vertex 6.8 20.8 1.5
    endloop
  endfacet
  facet normal -0 0 1
    outer loop
      vertex 28.4 28.4 1.5
      vertex 42.4 20.8 1.5
      vertex 42.4 28.4 1.5
    endloop
  endfacet
  facet normal 0 0 1
    outer loop
      vertex 42.4 20.8 1.5
      vertex 28.4 28.4 1.5
      vertex 28.4 20.8 1.5
    endloop
  endfacet
  facet normal 0 0 1
    outer loop
      vertex 42.4 28.4 1.5
      vertex 49.2 49.2 1.5
      vertex 42.4 42.4 1.5
    endloop
  endfacet
  facet normal 0 0 1
    outer loop
      vertex 49.2 49.2 1.5
      vertex 28.4 42.4 1.5
      vertex 42.4 42.4 1.5
    endloop
  endfacet
  facet normal 0 0 1
    outer loop
      vertex 20.8 28.4 1.5
      vertex 28.4 28.4 1.5
      vertex 28.4 42.4 1.5
    endloop
  endfacet
  facet normal 0 0 1
    outer loop
      vertex 28.4 28.4 1.5
      vertex 20.8 28.4 1.5
      vertex 28.4 20.8 1.5
    endloop
  endfacet
  facet normal 0 0 1
    outer loop
      vertex 20.8 28.4 1.5
      vertex 28.4 42.4 1.5
      vertex 20.8 42.4 1.5
    endloop
  endfacet
  facet normal 0 0 1
    outer loop
      vertex 49.2 49.2 1.5
      vertex 20.8 42.4 1.5
      vertex 28.4 42.4 1.5
    endloop
  endfacet
  facet normal -0 0 1
    outer loop
      vertex 0 49.2 1.5
      vertex 20.8 42.4 1.5
      vertex 49.2 49.2 1.5
    endloop
  endfacet
  facet normal 0 0 1
    outer loop
      vertex 0 49.2 1.5
      vertex 6.8 28.4 1.5
      vertex 6.8 42.4 1.5
    endloop
  endfacet
  facet normal 0 0 1
    outer loop
      vertex 6.8 28.4 1.5
      vertex 0 49.2 1.5
      vertex 6.8 20.8 1.5
    endloop
  endfacet
  facet normal 0 0 1
    outer loop
      vertex 0 0 1.5
      vertex 6.8 20.8 1.5
      vertex 0 49.2 1.5
    endloop
  endfacet
  facet normal 0 0 1
    outer loop
      vertex 20.8 42.4 1.5
      vertex 0 49.2 1.5
      vertex 6.8 42.4 1.5
    endloop
  endfacet
  facet normal 0 0 1
    outer loop
      vertex 49.2 49.2 1.5
      vertex 42.4 28.4 1.5
      vertex 49.2 0 1.5
    endloop
  endfacet
  facet normal -0 0 1
    outer loop
      vertex 42.4 20.8 1.5
      vertex 49.2 0 1.5
      vertex 42.4 28.4 1.5
    endloop
  endfacet
  facet normal -0 0 1
    outer loop
      vertex 42.4 6.8 1.5
      vertex 49.2 0 1.5
      vertex 42.4 20.8 1.5
    endloop
  endfacet
  facet normal -0 0 1
    outer loop
      vertex 28.4 6.8 1.5
      vertex 49.2 0 1.5
      vertex 42.4 6.8 1.5
    endloop
  endfacet
  facet normal 0 0 1
    outer loop
      vertex 20.8 20.8 1.5
      vertex 28.4 20.8 1.5
      vertex 20.8 28.4 1.5
    endloop
  endfacet
  facet normal 0 0 1
    outer loop
      vertex 28.4 20.8 1.5
      vertex 20.8 20.8 1.5
      vertex 28.4 6.8 1.5
    endloop
  endfacet
  facet normal 0 0 1
    outer loop
      vertex 20.8 6.8 1.5
      vertex 28.4 6.8 1.5
      vertex 20.8 20.8 1.5
    endloop
  endfacet
  facet normal -0 0 1
    outer loop
      vertex 20.8 6.8 1.5
      vertex 49.2 0 1.5
      vertex 28.4 6.8 1.5
    endloop
  endfacet
  facet normal 0 0 1
    outer loop
      vertex 0 0 1.5
      vertex 20.8 6.8 1.5
      vertex 6.8 6.8 1.5
    endloop
  endfacet
  facet normal 0 0 1
    outer loop
      vertex 20.8 6.8 1.5
      vertex 0 0 1.5
      vertex 49.2 0 1.5
    endloop
  endfacet
  facet normal 0 0 1
    outer loop
      vertex 6.8 20.8 1.5
      vertex 0 0 1.5
      vertex 6.8 6.8 1.5
    endloop
  endfacet
  facet normal 1 -0 0
    outer loop
      vertex 49.2 0 1.5
      vertex 49.2 49.2 0
      vertex 49.2 49.2 1.5
    endloop
  endfacet
  facet normal 1 0 0
    outer loop
      vertex 49.2 49.2 0
      vertex 49.2 0 1.5
      vertex 49.2 0 0
    endloop
  endfacet
  facet normal 0 1 -0
    outer loop
      vertex 49.2 49.2 0
      vertex 0 49.2 1.5
      vertex 49.2 49.2 1.5
    endloop
  endfacet
  facet normal 0 1 0
    outer loop
      vertex 0 49.2 1.5
      vertex 49.2 49.2 0
      vertex 0 49.2 0
    endloop
  endfacet
  facet normal 0 -1 0
    outer loop
      vertex 0 0 0
      vertex 49.2 0 1.5
      vertex 0 0 1.5
    endloop
  endfacet
  facet normal 0 -1 -0
    outer loop
      vertex 49.2 0 1.5
      vertex 0 0 0
      vertex 49.2 0 0
    endloop
  endfacet
endsolid OpenSCAD_Model
